<svg xmlns="http://www.w3.org/2000/svg" id="Layer_1" viewBox="0 0 32 32" width="32" height="32"><defs><style>.cls-1{fill:#b4fff4}</style></defs><path d="M23.67 23.71l-2.37-3.9a17.57 17.57 0 0 0 .79-4.81v-.65c-.25-4.35-1.93-5.91-3.18-7.16a6.1 6.1 0 0 1-1.37-1.83 1.22 1.22 0 0 0 .46-.25.73.73 0 0 0 .35-.66l-.06-.15a1.57 1.57 0 0 0-.89-.19 2.38 2.38 0 0 1 0-.84c0-.15 0-.15.23-.17a.31.31 0 0 0 .37-.17.54.54 0 0 0-.1-.48v-.07A6 6 0 0 1 17.31.6c0-.42-.1-.53-.17-.57a.2.2 0 0 0-.21 0c-.05 0-.18.1-.18.57a5.7 5.7 0 0 1-.52 1.76v.05a.91.91 0 0 0-.12.35.29.29 0 0 0 .29.29c.21 0 .21 0 .23.17a3.34 3.34 0 0 1 0 .51v.33a1.59 1.59 0 0 0-.9.19l-.06.15a.73.73 0 0 0 .35.66 1.22 1.22 0 0 0 .53.18 6.14 6.14 0 0 1-1.45 1.94c-1.25 1.25-2.93 2.81-3.17 7.14v.65a17.57 17.57 0 0 0 .79 4.84l-2.37 3.9L8.9 32h1.62L12 26.73l2.53-2.12h.1l.27.09c.05.26.1.54.13.71s.09.45 1.27.53v6h1.34V26c1.24-.08 1.3-.41 1.33-.54s.08-.45.12-.71l.28-.09h.06L22 26.73 23.48 32h1.62z" class="cls-1"/></svg>